<svg width="20" height="20" viewBox="0 0 20 20" fill="none" xmlns="http://www.w3.org/2000/svg">
<path fill-rule="evenodd" clip-rule="evenodd" d="M14.583 3.75C15.558 3.75 16.5747 3.875 17.4997 4.16667C18.1247 4.375 18.6663 4.625 19.1663 5V17.1667C19.1663 17.375 18.958 17.5833 18.7497 17.5833C18.6663 17.5833 18.6247 17.5833 18.5413 17.5417C17.3747 16.9167 15.958 16.6667 14.583 16.6667C13.1663 16.6667 11.1247 17.2083 9.99967 17.9167C8.79134 17 7.04134 16.6667 5.41634 16.6667C4.20801 16.6667 2.58301 17.0417 1.45801 17.5833C1.41634 17.5833 1.38509 17.5938 1.35384 17.6042C1.32259 17.6146 1.29134 17.625 1.24967 17.625C1.04134 17.625 0.833008 17.4167 0.833008 17.2083V5C2.04134 4.08333 3.79134 3.75 5.41634 3.75C7.04134 3.75 8.79134 4.08333 9.99967 5C11.208 4.08333 12.958 3.75 14.583 3.75ZM14.583 15C15.583 15 16.583 15.125 17.4997 15.4167V5.83333C16.583 5.54167 15.583 5.41667 14.583 5.41667C13.1663 5.41667 11.1247 5.95833 9.99967 6.66667V16.25C11.1247 15.5417 13.1663 15 14.583 15ZM16.6663 8.96667C16.0247 8.825 15.3163 8.75 14.583 8.75C13.083 8.75 11.7747 9.04167 10.833 9.575V8.19167C11.883 7.74167 13.1663 7.5 14.583 7.5C15.2997 7.5 16.008 7.575 16.6663 7.7V8.96667ZM10.833 10.4083V11.7916C11.7747 11.2583 13.083 10.9666 14.583 10.9666C15.3163 10.9666 16.0247 11.0416 16.6663 11.1833V9.91664C16.008 9.79164 15.2997 9.71664 14.583 9.71664C13.1663 9.71664 11.883 9.96664 10.833 10.4083ZM10.833 12.6318C11.883 12.1818 13.1663 11.9401 14.583 11.9401C15.2997 11.9401 16.008 12.0068 16.6663 12.1401V13.4068C16.0247 13.2651 15.3163 13.1901 14.583 13.1901C13.083 13.1901 11.7747 13.4818 10.833 14.0151V12.6318Z" fill="#005DA3"/>
</svg>
