<svg width="20" height="20" viewBox="0 0 20 20" fill="#005DA3" stroke="#005DA3" xmlns="http://www.w3.org/2000/svg">
<path fill-rule="evenodd" clip-rule="evenodd" d="M14.5835 3.75C15.5585 3.75 16.5752 3.875 17.5002 4.16667C18.1252 4.375 18.6668 4.625 19.1668 5V17.1667C19.1668 17.375 18.9585 17.5833 18.7502 17.5833C18.6668 17.5833 18.6252 17.5833 18.5418 17.5417C17.3752 16.9167 15.9585 16.6667 14.5835 16.6667C13.1668 16.6667 11.1252 17.2083 10.0002 17.9167C8.79183 17 7.04183 16.6667 5.41683 16.6667C4.2085 16.6667 2.5835 17.0417 1.4585 17.5833C1.41683 17.5833 1.38558 17.5938 1.35433 17.6042C1.32308 17.6146 1.29183 17.625 1.25016 17.625C1.04183 17.625 0.833496 17.4167 0.833496 17.2083V5C2.04183 4.08333 3.79183 3.75 5.41683 3.75C7.04183 3.75 8.79183 4.08333 10.0002 5C11.2085 4.08333 12.9585 3.75 14.5835 3.75ZM14.5835 15C15.5835 15 16.5835 15.125 17.5002 15.4167V5.83333C16.5835 5.54167 15.5835 5.41667 14.5835 5.41667C13.1668 5.41667 11.1252 5.95833 10.0002 6.66667V16.25C11.1252 15.5417 13.1668 15 14.5835 15ZM16.6668 8.96667C16.0252 8.825 15.3168 8.75 14.5835 8.75C13.0835 8.75 11.7752 9.04167 10.8335 9.575V8.19167C11.8835 7.74167 13.1668 7.5 14.5835 7.5C15.3002 7.5 16.0085 7.575 16.6668 7.7V8.96667ZM10.8335 10.4083V11.7916C11.7752 11.2583 13.0835 10.9666 14.5835 10.9666C15.3168 10.9666 16.0252 11.0416 16.6668 11.1833V9.91664C16.0085 9.79164 15.3002 9.71664 14.5835 9.71664C13.1668 9.71664 11.8835 9.96664 10.8335 10.4083ZM10.8335 12.6318C11.8835 12.1818 13.1668 11.9401 14.5835 11.9401C15.3002 11.9401 16.0085 12.0068 16.6668 12.1401V13.4068C16.0252 13.2651 15.3168 13.1901 14.5835 13.1901C13.0835 13.1901 11.7752 13.4818 10.8335 14.0151V12.6318Z" fill="white"/>
</svg>
