<svg width="13" height="13" viewBox="0 0 13 13" fill="none" xmlns="http://www.w3.org/2000/svg">
<path d="M7.13359 2.16671L9.74984 4.78296V10.8334H3.24984V2.16671H7.13359ZM7.58317 1.08337H3.24984C2.654 1.08337 2.1665 1.57087 2.1665 2.16671V10.8334C2.1665 11.4292 2.654 11.9167 3.24984 11.9167H9.74984C10.3457 11.9167 10.8332 11.4292 10.8332 10.8334V4.33337L7.58317 1.08337ZM6.49984 7.58337C7.09567 7.58337 7.58317 7.09587 7.58317 6.50004C7.58317 5.90421 7.09567 5.41671 6.49984 5.41671C5.904 5.41671 5.4165 5.90421 5.4165 6.50004C5.4165 7.09587 5.904 7.58337 6.49984 7.58337ZM8.6665 9.44129C8.6665 9.00254 8.4065 8.61254 8.00567 8.43921C7.54525 8.23879 7.03609 8.12504 6.49984 8.12504C5.96359 8.12504 5.45442 8.23879 4.994 8.43921C4.59317 8.61254 4.33317 9.00254 4.33317 9.44129V9.75004H8.6665V9.44129Z" fill="#EE5B3A"/>
</svg>
